<svg fill="#000000" xmlns:dc="http://purl.org/dc/elements/1.1/" xmlns:cc="http://creativecommons.org/ns#" xmlns:rdf="http://www.w3.org/1999/02/22-rdf-syntax-ns#" xmlns:svg="http://www.w3.org/2000/svg" xmlns="http://www.w3.org/2000/svg" xmlns:sodipodi="http://sodipodi.sourceforge.net/DTD/sodipodi-0.dtd" xmlns:inkscape="http://www.inkscape.org/namespaces/inkscape" version="1.1" x="0px" y="0px" viewBox="0 0 100 100"><g transform="translate(0,-952.36218)"><path d="m 25.96875,964.375 c -2.170004,0.0473 -3.481914,0.93023 -4.71875,2.34375 l -7,8 C 12.527456,976.68737 12,979.523 12,982.375 c 0,9.58448 6.972734,24.3765 20.28125,37.6875 13.311028,13.3085 28.134195,20.3124 37.71875,20.3125 2.851939,0 5.687573,-0.5274 7.65625,-2.25 l 8,-7 c 1.413482,-1.2369 2.296324,-2.5801 2.34375,-4.75 0.04033,-1.8592 -1.005409,-3.4429 -2.28125,-4.7188 l -11,-11 c -1.290917,-1.2908 -2.714729,-2.2813 -4.71875,-2.2812 -2.114257,-10e-5 -3.577358,1.1399 -4.71875,2.2812 0,0 -4.155838,4.1466 -4.2311,4.2139 -0.709055,0.6344 -1.263504,0.9205 -1.73765,1.0049 -0.494906,0.088 -1.042091,-0.042 -1.75,-0.375 L 36.875,994.8125 c -0.346715,-0.72601 -0.464589,-1.24709 -0.375,-1.75 0.09451,-0.53052 0.413792,-1.16426 1.21875,-2 l 4,-4 C 42.860166,985.92109 44,984.48917 44,982.375 c 0,-2.00401 -0.990301,-3.4278 -2.28125,-4.71875 l -11,-11 c -1.275858,-1.27586 -2.890777,-2.3217 -4.75,-2.28125 z m 0.0625,2 c 1.041831,-0.0227 2.182516,0.62002 3.25,1.6875 l 11,11 C 41.459425,980.24067 42,980.96969 42,982.375 c 0,1.43161 -0.67534,2.23784 -1.71875,3.28125 l -4,4 c -0.959925,0.99664 -1.560882,1.96965 -1.75,3.03125 -0.231837,1.32995 0.141419,2.43023 0.75,3.375 l 21,21 c 0.989536,0.6479 2.392103,0.9403 3.375,0.7813 0.946413,-0.1687 1.822415,-0.6645 2.707512,-1.4503 0.10773,-0.096 4.354988,-4.3307 4.354988,-4.3307 1.04346,-1.0434 1.849685,-1.6876 3.28125,-1.6875 1.405109,-1e-4 2.103079,0.5094 3.28125,1.6875 l 11,11 c 1.067491,1.0675 1.741356,2.2392 1.71875,3.2813 -0.03867,1.7695 -0.376912,2.1617 -1.65625,3.2812 l -8,7 c -1.375725,1.2038 -3.754911,1.75 -6.34375,1.75 -8.581537,-10e-5 -23.253508,-6.6935 -36.28125,-19.7188 C 20.693466,1005.6285 14,990.95642 14,982.375 c 0,-2.58886 0.546292,-4.96809 1.75,-6.34375 l 7,-8 c 1.119472,-1.2794 1.511744,-1.61771 3.28125,-1.65625 z" style="font-size:medium;font-style:normal;font-variant:normal;font-weight:normal;font-stretch:normal;text-indent:0;text-align:start;text-decoration:none;line-height:normal;letter-spacing:normal;word-spacing:normal;text-transform:none;direction:ltr;block-progression:tb;writing-mode:lr-tb;text-anchor:start;baseline-shift:baseline;opacity:1;color:#000000;fill:#000000;fill-opacity:1;stroke:none;stroke-width:2;marker:none;visibility:visible;display:inline;overflow:visible;enable-background:accumulate;font-family:Sans;-inkscape-font-specification:Sans"/></g></svg>