<svg version="1.1" id="Layer_1" xmlns="http://www.w3.org/2000/svg" xmlns:xlink="http://www.w3.org/1999/xlink" x="0px" y="0px"
	 viewBox="209.5 403.9 183.5 46" enable-background="new 209.5 403.9 183.5 46" xml:space="preserve">
<path d="M307,426.1c-1.5,0-2.6,0.5-3.8,1v11.5c1.1,0.1,1.7,0.1,2.7,0.1c3.7,0,4.1-1.7,4.1-4v-5.5C310.1,427.6,309.5,426.1,307,426.1
	 M282.7,425.5c-2.6,0-3.1,1.4-3.1,3.1v1h6.2v-1C285.8,426.9,285.2,425.5,282.7,425.5 M235.6,437.5c0,1.4,0.7,2.1,2,2.1
	c1.5,0,2.4-0.5,3.5-1v-2.7h-3.3C236.3,435.8,235.6,436.1,235.6,437.5 M330.6,426.1c-2.6,0-3.5,1.4-3.5,3.1v6.3
	c0,1.7,0.9,3.1,3.5,3.1s3.5-1.4,3.5-3.1v-6.3C334,427.6,333.1,426.1,330.6,426.1 M223.2,444.5h-7.4v-18H212v-6.2h3.8v-3.8
	c0-5.1,2.1-8.1,8.1-8.1h5v6.2h-3.1c-2.3,0-2.5,0.9-2.5,2.5v3.1h5.6l-0.7,6.2h-5L223.2,444.5L223.2,444.5z M248.7,444.6h-6.2
	l-0.3-1.6c-2.9,1.6-5.4,1.8-7.1,1.8c-4.6,0-7-3.1-7-7.3c0-5,2.9-6.8,7.9-6.8h5.2v-1.1c0-2.6-0.3-3.3-4.2-3.3h-6.4l0.6-6.2h7
	c8.6,0,10.4,2.7,10.4,9.5L248.7,444.6L248.7,444.6z M269.9,427c-3.9-0.7-5-0.8-6.8-0.8c-3.4,0-4.4,0.8-4.4,3.6v5.4
	c0,2.9,1,3.6,4.4,3.6c1.9,0,3-0.2,6.8-0.8v6.1c-3.4,0.8-5.6,1-7.4,1c-8,0-11.2-4.2-11.2-10.3v-4.4c0-6.1,3.2-10.3,11.2-10.3
	c1.9,0,4.1,0.2,7.4,1V427z M293.3,434.6h-13.7v0.5c0,2.9,1,3.6,4.4,3.6c3,0,4.9-0.2,8.7-0.8v6.1c-3.8,0.8-5.6,1-9.3,1
	c-8,0-11.2-4.2-11.2-10.3v-5c0-5.3,2.4-9.7,10.6-9.7c8.2,0,10.6,4.3,10.6,9.7L293.3,434.6L293.3,434.6z M317.6,434.7
	c0,5.9-1.7,10.1-11.9,10.1c-3.7,0-5.9-0.3-9.9-1v-33.7l7.4-1.3v11.8c1.6-0.6,3.7-0.9,5.6-0.9c7.4,0,8.7,3.4,8.7,8.7V434.7z
	 M341.5,434.8c0,5.1-2.1,10-10.9,10s-10.9-5-10.9-10V430c0-5.1,2.1-10,10.9-10s10.9,5,10.9,10V434.8z M365.4,434.8
	c0,5.1-2.1,10-10.9,10s-10.9-5-10.9-10V430c0-5.1,2.1-10,10.9-10s10.9,5,10.9,10V434.8z M390,444.5h-8.1l-6.8-11.4v11.4h-7.4v-34.3
	l7.4-1.3v22l6.8-10.8h8.1l-7.5,11.8L390,444.5z M354.5,426.1c-2.6,0-3.4,1.4-3.4,3.1v6.3c0,1.7,0.9,3.1,3.4,3.1
	c2.6,0,3.5-1.4,3.5-3.1v-6.3C358,427.6,357.1,426.1,354.5,426.1"/>
</svg>
